<svg xmlns="http://www.w3.org/2000/svg" version="1.1" xmlns:xlink="http://www.w3.org/1999/xlink" xmlns:svgjs="http://svgjs.dev/svgjs" viewBox="0 0 600 600" opacity="1"><path d="M1.1780104637145996,490.0523681640625C1.308900515238444,420.9424187342326,-14.005236228307089,83.24607531229655,1.963350772857666,1.5706806182861328C17.931937774022423,-80.10471407572429,64.65968871116638,0.2617801030476888,96.98953247070312,0C129.31937623023987,-0.2617801030476888,166.36126200358072,-0.2617801030476888,195.94241333007812,0C225.52356465657553,0.2617801030476888,253.14136250813803,-2.0942408243815103,274.4764404296875,1.5706806182861328C295.811518351237,5.2356020609537754,309.0314127604167,12.958114941914877,323.952880859375,21.98952865600586C338.8743489583333,31.02094237009684,354.05760701497394,43.58638827006022,364.0052490234375,55.75916290283203C373.95289103190106,67.93193753560384,380.1047058105469,79.58115005493164,383.63873291015625,95.02617645263672C387.1727600097656,110.4712028503418,388.2198791503906,132.59162521362305,385.20941162109375,148.4293212890625C382.1989440917969,164.26701736450195,370.1570790608724,177.6177978515625,365.575927734375,190.05235290527344C360.9947764078776,202.48690795898438,356.8062744140625,207.85340627034506,357.7225036621094,223.03665161132812C358.63873291015625,238.2198969523112,364.00523885091144,265.9685770670573,371.07330322265625,281.1518249511719C378.14136759440106,296.33507283528644,392.67015584309894,301.3089141845703,400.1308898925781,314.1361389160156C407.5916239420573,326.96336364746094,412.0418955485026,343.5863800048828,415.83770751953125,358.11517333984375C419.6335194905599,372.6439666748047,425.000005086263,385.99476114908856,422.90576171875,401.30889892578125C420.811518351237,416.62303670247394,415.18324279785156,437.95811462402344,403.2722473144531,450C391.3612518310547,462.04188537597656,369.76439412434894,468.3246103922526,351.4397888183594,473.5602111816406C333.1151835123698,478.7958119710286,310.0785420735677,476.5706736246745,293.3246154785156,481.4136047363281C276.57068888346356,486.25653584798175,262.04188537597656,492.0157012939453,250.91622924804688,502.6177978515625C239.7905731201172,513.2198944091797,231.93717193603516,532.329844156901,226.5706787109375,545.0261840820312C221.20418548583984,557.7225240071615,220.81151072184244,569.7644246419271,218.71726989746094,578.7958374023438C216.62302907307944,587.8272501627604,225.78533681233725,596.2041931152344,214.00523376464844,599.2146606445312C202.22513071695963,602.2251281738281,173.5602118174235,597.1204223632812,148.03665161132812,596.858642578125C122.51309140523274,596.5968627929688,85.20942266782124,597.90576171875,60.86387252807617,597.6439819335938C36.5183223883311,597.3822021484375,12.041884501775106,687.0418910980225,1.963350772857666,595.2879638671875C-8.115182956059774,503.53403663635254,0.7853403091430664,126.96335093180339,0.3926701545715332,47.120418548583984C0,-32.72251383463542,-0.3926701545715332,92.01571083068848,-0.3926701545715332,116.2303695678711C-0.3926701545715332,140.4450283050537,0.26178010304768884,167.93192927042642,0.3926701545715332,192.4083709716797C0.5235602060953776,216.88481267293295,0.5235602060953776,238.08901723225912,0.3926701545715332,263.0890197753906C0.26178010304768884,288.08902231852215,-0.5235602060953776,316.88482666015625,-0.3926701545715332,342.40838623046875C-0.26178010304768884,367.93194580078125,0.9162303606669109,391.623046875,1.1780104637145996,416.2303771972656C1.4397905667622883,440.83770751953125,1.0471204121907551,559.1623175938925,1.1780104637145996,490.0523681640625C1.308900515238444,420.9424187342326,-14.005236228307089,83.24607531229655,1.963350772857666,1.5706806182861328" fill="#365fac" stroke-width="10" stroke="hsl(227, 47%, 42%)" transform="matrix(1.477455443789063,0,0,1.477455443789063,-99.80314739351405,-143.60564187932818)"></path></svg>