<svg xmlns="http://www.w3.org/2000/svg" version="1.1" xmlns:xlink="http://www.w3.org/1999/xlink" xmlns:svgjs="http://svgjs.dev/svgjs" viewBox="0 0 600 600" opacity="1"><path d="M-0.3926701545715332,464.1361389160156C-0.3926701545715332,444.764404296875,-12.958115498224894,422.90574645996094,0.3926701545715332,410.73297119140625C13.74345580736796,398.56019592285156,54.973823626836136,400.6544596354167,79.71204376220703,391.0994873046875C104.45026389757793,381.5445149739583,126.96335220336914,366.62303670247394,148.82199096679688,353.40313720703125C170.6806297302246,340.18323771158856,186.51832580566406,320.94239298502606,210.86387634277344,311.78009033203125C235.2094268798828,302.61778767903644,268.3246129353841,296.59685770670575,294.8952941894531,298.4293212890625C321.46597544352215,300.26178487141925,354.05759684244794,310.6020965576172,370.2879638671875,322.7748718261719C386.51833089192706,334.94764709472656,390.0523681640625,357.0680694580078,392.2774963378906,371.4659729003906C394.50262451171875,385.86387634277344,383.5078430175781,395.0261688232422,383.63873291015625,409.16229248046875C383.7696228027344,423.2984161376953,384.29320271809894,444.6334991455078,393.0628356933594,456.28271484375C401.8324686686198,467.9319305419922,420.6806182861328,471.7277425130208,436.25653076171875,479.0575866699219C451.8324432373047,486.38743082682294,476.17799377441406,490.3141326904297,486.518310546875,500.26177978515625C496.85862731933594,510.2094268798828,498.0366465250651,525.7853495279948,498.2984313964844,538.7434692382812C498.5602162679036,551.7015889485677,497.90577189127606,568.0628560384115,488.0890197753906,578.010498046875C478.2722676595052,587.9581400553385,466.4921620686849,595.4188537597656,439.3979187011719,598.4293212890625C412.3036753336589,601.4397888183594,363.7434565226237,596.4659729003906,325.5235595703125,596.0733032226562C287.3036626180013,595.6806335449219,246.7277514139811,596.0733032226562,210.0785369873047,596.0733032226562C173.42932256062826,596.0733032226562,137.8272263209025,596.3350830078125,105.6282730102539,596.0733032226562C73.42931969960532,595.8115234375,34.55497431755066,594.8952941894531,16.884817123413086,594.5026245117188C-0.7853400707244873,594.1099548339844,2.356021006902059,604.9738260904948,-0.3926701545715332,593.71728515625C-3.1413613160451255,582.4607442220052,0.3926701545715332,548.5602366129557,0.3926701545715332,526.96337890625C0.3926701545715332,505.36652119954425,-0.3926701545715332,483.50787353515625,-0.3926701545715332,464.1361389160156C-0.3926701545715332,444.764404296875,-12.958115498224894,422.90574645996094,0.3926701545715332,410.73297119140625" fill="#ffcc01" stroke-width="12" stroke="hsl(45, 100%, 50%)" transform="matrix(0.9975000000000002,0,0,0.9975000000000002,0.6157369565961801,1.1218663406369842)"></path><defs><linearGradient id="SvgjsLinearGradient1000"><stop stop-color="hsl(340, 45%, 50%)" offset="0"></stop><stop stop-color="hsl(340, 45%, 80%)" offset="1"></stop></linearGradient><radialGradient id="SvgjsRadialGradient1001"><stop stop-color="hsl(340, 45%, 50%)" offset="0"></stop><stop stop-color="hsl(340, 45%, 80%)" offset="1"></stop></radialGradient></defs></svg>