<svg xmlns="http://www.w3.org/2000/svg" version="1.1" xmlns:xlink="http://www.w3.org/1999/xlink" xmlns:svgjs="http://svgjs.dev/svgjs" viewBox="0 0 600 600"><path d="M0.5244755148887634,504.5454406738281C1.2237762113412223,542.6573282877604,-11.888112316528957,576.3986053466797,4.720279693603516,590.5594482421875C21.32867170373599,604.7202911376953,75.00000317891438,589.6853230794271,100.1748275756836,589.510498046875C125.3496519724528,589.3356730143229,130.06992467244467,590.0349731445312,155.76922607421875,589.510498046875C181.46852747599283,588.9860229492188,225.87413024902344,586.1888224283854,254.37063598632812,586.3636474609375C282.8671417236328,586.5384724934896,302.09791056315106,590.5594482421875,326.7482604980469,590.5594482421875C351.3986104329427,590.5594482421875,379.020991007487,592.1328837076823,402.2727355957031,586.3636474609375C425.52448018391925,580.5944112141927,452.6223653157552,570.4545237223307,466.25872802734375,555.9440307617188C479.8950907389323,541.4335378011068,486.1888122558594,520.1048838297526,484.0909118652344,499.3006896972656C481.9930114746094,478.4964955647786,462.9370625813802,449.99998474121094,453.67132568359375,431.1188659667969C444.4055887858073,412.2377471923828,430.24474080403644,408.7412465413411,428.4964904785156,386.01397705078125C426.7482401529948,363.2867075602214,433.0419616699219,323.7762273152669,443.18182373046875,294.7552490234375C453.3216857910156,265.7342707316081,480.2447560628255,240.90908686319986,489.3356628417969,211.8881072998047C498.42656962076825,182.86712773640951,502.9720204671224,145.8041960398356,497.7272644042969,120.6293716430664C492.4825083414714,95.4545472462972,472.3776143391927,74.65034993489583,457.86712646484375,60.83916091918945C443.3566385904948,47.02797190348307,431.6433563232422,42.307692209879555,410.6643371582031,37.762237548828125C389.68531799316406,33.216782887776695,360.31468963623047,28.496503194173176,331.9930114746094,33.56643295288086C303.6713333129883,38.63636271158854,266.2587432861328,53.146851221720375,240.73426818847656,68.18181610107422C215.2097930908203,83.21678098042806,197.72727966308594,111.88811111450195,178.84616088867188,123.7762222290039C159.9650421142578,135.66433334350586,142.83217239379883,139.16083272298178,127.44755554199219,139.51048278808594C112.06293869018555,139.8601328531901,102.97202682495117,130.59440104166666,86.53845977783203,125.8741226196289C70.10489273071289,121.15384419759114,43.00699212153753,107.86713282267253,28.846153259277344,111.18881225585938C14.68531439701716,114.51049168904622,6.293706228335698,104.02098083496094,1.573426604270935,145.80419921875C-3.146853019793828,187.58741760253906,0.6993006964524587,302.09791564941406,0.5244755148887634,361.88812255859375C0.3496503333250681,421.67832946777344,-0.1748251815636953,466.4335530598958,0.5244755148887634,504.5454406738281C1.2237762113412223,542.6573282877604,-11.888112316528957,576.3986053466797,4.720279693603516,590.5594482421875" fill="#ffcc01" transform="matrix(1.09974375,0,0,1.09974375,-24.747197145167092,-31.319807268977172)" stroke-width="12" stroke="hsl(45, 90%, 53%)"></path><defs><radialGradient id="SvgjsRadialGradient1000"><stop stop-color="hsl(340, 45%, 50%)" offset="0"></stop><stop stop-color="hsl(340, 45%, 80%)" offset="1"></stop></radialGradient><linearGradient id="SvgjsLinearGradient1001"><stop stop-color="hsl(340, 45%, 50%)" offset="0"></stop><stop stop-color="hsl(340, 45%, 80%)" offset="1"></stop></linearGradient></defs></svg>